# xmcd
#
# Track frame offsets:
#	150
#	25315
#	44698
#	80315
#	114179
#	157663
#	192534
#	233813
#	259399
#
# Disc length: 3900 seconds
#
# Revision: 1
# Processed by: cddbd v1.5.2PL0 Copyright (c) Steve Scherf et al.
# Submitted via: audiograbber 1.83.01
#
DISCID=6d0f3a09
DTITLE=Grateful Dead - 72-10-30A Ford Auditorium, Detroit MI
DYEAR=1900
DGENRE=
TTITLE0=Tomorrow Is Forever
TTITLE1=Around and Around
TTITLE2=Candyman
TTITLE3=Greatest Story Ever Told
TTITLE4=Mississippi Half-Step
TTITLE5=Sugar Magnolia
TTITLE6=GDTRFB
TTITLE7=Not Fade Away
TTITLE8=Uncle John's Band
EXTD=
EXTT0=
EXTT1=
EXTT2=
EXTT3=
EXTT4=
EXTT5=
EXTT6=
EXTT7=
EXTT8=
PLAYORDER=
